<svg width="32" height="32" viewBox="0 0 32 32" fill="none" xmlns="http://www.w3.org/2000/svg">
<g clip-path="url(#clip0_217_139)">
<path d="M22.426 10.0464L6.77934 9.61894C6.16238 9.60321 5.55558 9.77815 5.04168 10.1199C4.52778 10.4616 4.13178 10.9536 3.90767 11.5286C3.68356 12.1036 3.64226 12.7338 3.78939 13.3331C3.93652 13.9325 4.26491 14.4719 4.72981 14.8778L9.17441 18.7304C9.27863 18.8251 9.36296 18.9395 9.42246 19.0671C9.48196 19.1947 9.51544 19.3329 9.52096 19.4736L9.61528 25.3547C9.62404 25.8546 9.75758 26.3443 10.0037 26.7794C10.2499 27.2145 10.6009 27.5812 11.0248 27.8462C11.4488 28.1111 11.9322 28.2659 12.4312 28.2965C12.9302 28.3271 13.4289 28.2325 13.882 28.0214C14.3044 27.8193 14.6762 27.5252 14.9703 27.1608L24.7003 14.9C25.0448 14.4637 25.2613 13.9403 25.3256 13.3882C25.39 12.836 25.2996 12.2768 25.0647 11.773C24.8298 11.2692 24.4595 10.8406 23.9951 10.535C23.5308 10.2293 22.9907 10.0587 22.435 10.0422L22.426 10.0464ZM23.1281 13.6581L13.3981 25.9189C13.2688 26.0766 13.0944 26.191 12.8982 26.2467C12.7021 26.3025 12.4935 26.2969 12.3006 26.2308C12.1077 26.1647 11.9396 26.0412 11.8189 25.8768C11.6982 25.7124 11.6306 25.5151 11.6252 25.3112L11.5218 19.4343C11.5196 19.3562 11.5127 19.2784 11.5014 19.2011L17.7458 16.2893C17.9862 16.1772 18.1722 15.9742 18.2629 15.725C18.3536 15.4758 18.3416 15.2007 18.2295 14.9603C18.1174 14.72 17.9144 14.534 17.6652 14.4433C17.416 14.3526 17.1409 14.3646 16.9006 14.4766L10.6561 17.3885C10.6042 17.3301 10.549 17.2748 10.4906 17.2229L6.0551 13.3661C5.90239 13.2309 5.79467 13.0523 5.74636 12.8542C5.69805 12.6561 5.71147 12.4479 5.78482 12.2576C5.85817 12.0673 5.98795 11.904 6.15674 11.7896C6.32554 11.6751 6.52529 11.6151 6.72921 11.6174L22.3758 12.0449C22.5598 12.0517 22.7382 12.1091 22.8916 12.2109C23.045 12.3126 23.1673 12.4547 23.245 12.6216C23.3228 12.7884 23.3531 12.9734 23.3324 13.1563C23.3118 13.3392 23.2411 13.5128 23.1281 13.6581Z" fill="#F8F8F8"/>
</g>
<defs>
<clipPath id="clip0_217_139">
<rect width="24" height="24" fill="white" transform="translate(0.0528564 10.1958) rotate(-25)"/>
</clipPath>
</defs>
</svg>
